<svg xmlns="http://www.w3.org/2000/svg" width="24" height="24" fill="none"><path fill="#0085FF" d="M6.902 5.077C8.965 6.64 11.185 9.812 12 11.514v4.495c0-.095-.037.013-.115.245-.426 1.262-2.087 6.184-5.885 2.249-2-2.072-1.074-4.144 2.566-4.77-2.082.359-4.424-.233-5.066-2.55-.185-.667-.5-4.774-.5-5.33 0-2.778 2.413-1.904 3.902-.776Zm10.196 0C15.035 6.64 12.815 9.812 12 11.514v4.495c0-.095.037.013.115.245.426 1.262 2.087 6.184 5.885 2.249 2-2.072 1.074-4.144-2.566-4.77 2.082.359 4.424-.233 5.066-2.55.185-.667.5-4.774.5-5.33 0-2.778-2.413-1.904-3.902-.776Z"/></svg>