<svg xmlns="http://www.w3.org/2000/svg" width="28" height="28"><path fill="#111" d="M19 1c3.975 2.285 6.542 4.627 8 9 .388 4.73.481 7.055-1.688 11.313-3.574 4.154-5.75 5.513-11.25 6.125C9.785 27.26 7.266 25.81 4 23 1.033 19.44.52 16.423.715 11.922 1.31 7.91 3.44 5.627 6.063 2.687 10.367.215 14.155-.017 19 1Z"/><path fill="#DBDBDB" d="M22 6v3l-2 1.625c-2.98 3.54-2.342 6.923-2 11.375h-3l-1-5-1.375 1.5C11 20 11 20 9 20l-2-3-2-1 .5-1.875c.576-2.086.576-2.086.5-4.125h4l3-1-3 6 1 2c2.296-2.296 2.323-3.008 2.625-6.125L14 7l3 3 5-4Z"/><path fill="#E4E4E4" d="M11 9h2l-.875 1.688C10.959 13.085 9.966 15.515 9 18l-4-2 .5-1.875c.576-2.086.576-2.086.5-4.125h4l1-1Z"/></svg>