<svg xmlns="http://www.w3.org/2000/svg" width="96" height="96"><path fill="#F7F7F7" d="m17.833 4.807 2.13-.025c2.33-.025 4.66-.041 6.99-.055l2.412-.017c4.215-.026 8.43-.046 12.645-.06 4.35-.017 8.698-.061 13.047-.112 3.347-.034 6.695-.046 10.042-.051 1.603-.007 3.206-.022 4.808-.046 2.248-.032 4.494-.032 6.742-.024l3.872-.025C85.113 5.194 86.723 6.741 90 10c1.233 2.467 1.154 4.146 1.193 6.905l.049 3.096c.044 4.679.085 9.358.108 14.037.017 2.468.044 4.935.082 7.402.055 3.557.077 7.112.091 10.67l.07 3.333c-.024 8.553-.024 8.553-2.938 12.238C86 70 86 70 83 71l-.113 3.797a5697.64 5697.64 0 0 1-.2 4.953l-.068 2.5c-.155 3.496-.33 6.145-1.85 9.328C79 93 79 93 76.583 93.52c-3.503-.705-4.593-2.127-6.894-4.833a6239.888 6239.888 0 0 0-3.353-3.845C65 83 65 83 63.72 80.222 61.802 76.6 60.28 74.502 57 72c-7.275-1.925-15.177-1.175-22.625-.938-3.095.062-6.188.107-9.283.132-1.92.019-3.838.06-5.756.13C13.71 71.425 10.373 70.926 6 67c-1.912-3.07-2.263-5.452-2.306-9.04l-.049-3.035-.016-3.26c-.01-1.113-.018-2.225-.027-3.371-.015-2.352-.024-4.704-.028-7.056-.011-3.593-.06-7.184-.111-10.777-.01-2.287-.017-4.573-.022-6.86l-.059-3.248c.05-8.329.05-8.329 3.028-12.016 3.989-3.6 6.1-3.476 11.423-3.53Z"/><path fill="#010101" d="m17.833 4.807 2.13-.025c2.33-.025 4.66-.041 6.99-.055l2.412-.017c4.215-.026 8.43-.046 12.645-.06 4.35-.017 8.698-.061 13.047-.112 3.347-.034 6.695-.046 10.042-.051 1.603-.007 3.206-.022 4.808-.046 2.248-.032 4.494-.032 6.742-.024l3.872-.025C85.113 5.194 86.723 6.741 90 10c1.233 2.467 1.154 4.146 1.193 6.905l.049 3.096c.044 4.679.085 9.358.108 14.037.017 2.468.044 4.935.082 7.402.055 3.557.077 7.112.091 10.67l.07 3.333c-.024 8.553-.024 8.553-2.938 12.238C86 70 86 70 83 71l-.113 3.797a5697.64 5697.64 0 0 1-.2 4.953l-.068 2.5c-.155 3.496-.33 6.145-1.85 9.328C79 93 79 93 76.583 93.52c-3.503-.705-4.593-2.127-6.894-4.833a6239.888 6239.888 0 0 0-3.353-3.845C65 83 65 83 63.72 80.222 61.802 76.6 60.28 74.502 57 72c-7.275-1.925-15.177-1.175-22.625-.938-3.095.062-6.188.107-9.283.132-1.92.019-3.838.06-5.756.13C13.71 71.425 10.373 70.926 6 67c-1.912-3.07-2.263-5.452-2.306-9.04l-.049-3.035-.016-3.26c-.01-1.113-.018-2.225-.027-3.371-.015-2.352-.024-4.704-.028-7.056-.011-3.593-.06-7.184-.111-10.777-.01-2.287-.017-4.573-.022-6.86l-.059-3.248c.05-8.329.05-8.329 3.028-12.016 3.989-3.6 6.1-3.476 11.423-3.53ZM8 14c-.74 2.381-.74 2.381-.647 4.895l-.048 2.862.03 3.055-.014 3.172a602.19 602.19 0 0 0 .027 6.626c.027 3.379 0 6.754-.032 10.132.004 2.149.01 4.297.02 6.445l-.03 3.056c.073 4.43.282 7.073 2.6 10.92 4.484 2.663 8.152 2.31 13.258 2.052 2.03-.037 4.06-.072 6.09-.104a429.25 429.25 0 0 0 9.538-.32c17.273-.733 17.273-.733 22.215 2.537 3.355 3.197 5.69 6.859 7.938 10.882C70.677 83.148 72.648 85.524 75 88h3V67l6-1c2.171-2.063 2.892-3.367 3.394-6.314l.026-2.575.048-2.932V51.03l.024-3.25c.01-2.266.013-4.532.009-6.798-.001-3.47.04-6.939.085-10.409.005-2.202.008-4.403.008-6.605l.05-3.148-.029-2.932.006-2.575C86.688 11.838 85.045 10.822 82 9c-3.247-.608-3.247-.608-6.822-.533L73.16 8.44a453.59 453.59 0 0 0-6.566-.006c-1.528-.006-3.056-.012-4.584-.02-3.198-.01-6.395-.005-9.593.01a959.37 959.37 0 0 1-12.276-.042 985.28 985.28 0 0 0-9.46-.012c-1.51 0-3.018-.006-4.527-.02-2.111-.018-4.22-.004-6.332.019l-3.635.003C12.03 9.192 10.55 10.665 8 14Z"/><path fill="#0B0B0B" d="m57.188 19.688 3.98-.114c4.369.486 6.46 1.668 9.832 4.426 1.594 3.189 1.386 6.53 1 10-1.396 2.92-2.722 4.722-5 7l1.129 2.047 1.433 2.703 1.442 2.672C72.08 51.207 72.065 52.27 71 55l-4 1a1660.986 1660.986 0 0 1-3.5-6.375l-1.012-1.828C60 43.227 60 43.227 60 41h-5v14h-5c-1.705-1.705-1.128-3.845-1.139-6.119l.006-2.162-.003-2.208c0-1.544.001-3.087.006-4.63.005-2.371 0-4.741-.007-7.111 0-1.497.002-2.993.004-4.489l-.006-2.162c.034-6.996 1.954-6.34 8.327-6.431Z"/><path fill="#0C0C0C" d="M25 21c1.006 3.602 2.004 7.207 3 10.813l.867 3.103.82 2.979.762 2.745C31 43 31 43 31 46h2l.355-3.441c.583-4.63 1.673-9.018 2.958-13.496l.607-2.323c.63-2.205.63-2.205 2.08-5.74 1.966-.783 1.966-.783 4-1l2 1c.392 5.474-1.004 9.681-2.813 14.75-.551 1.596-1.102 3.192-1.652 4.79l-.804 2.316C38.363 46.866 37.167 50.927 36 55l-6 1c-2.423-2.93-3.685-5.511-4.79-9.14-.3-.99-.602-1.978-.913-2.997l-.922-3.113-.945-3.066C20.75 32.104 19.514 26.806 19 21c2.49-1.245 3.41-.777 6 0Z"/><path fill="#EBEBEB" d="M55 26c6.836-.195 6.836-.195 9 0l2 2c-.577 6.577-.577 6.577-2 8-3.003.142-5.992.042-9 0V26Z"/></svg>