<svg xmlns="http://www.w3.org/2000/svg" width="24" height="24" fill="none"><g fill-rule="evenodd" clip-rule="evenodd"><path fill="#d9252a" d="M21.582 7.2a2.513 2.513 0 0 0-1.768-1.78C18.254 5 12 5 12 5s-6.254 0-7.814.42A2.513 2.513 0 0 0 2.418 7.2C2 8.77 2 12.045 2 12.045s0 3.276.418 4.846c.23.866.908 1.548 1.768 1.78 1.56.42 7.814.42 7.814.42s6.254 0 7.814-.42a2.513 2.513 0 0 0 1.768-1.78C22 15.32 22 12.046 22 12.046s0-3.276-.418-4.846z"/><path fill="#fffffe" d="m9.954 15.02 5.228-2.974-5.228-2.974z"/></g></svg>